<svg width="680" height="720" viewBox="0 0 680 720" fill="none" xmlns="http://www.w3.org/2000/svg" role="img" aria-labelledby="title desc">
  <title id="title">健康顾问示意插画</title>
  <desc id="desc">一位健康顾问拿着记录板的简洁插画。</desc>
  <rect width="680" height="720" rx="48" fill="#ECFDF5"/>
  <circle cx="348" cy="164" r="84" fill="#D1FAE5"/>
  <circle cx="348" cy="145" r="54" fill="#FFE7D4"/>
  <path d="M285 141c11-62 113-60 123 2-31-26-82-29-123-2Z" fill="#1E293B"/>
  <path d="M225 642c11-155 37-270 123-270 87 0 113 115 123 270H225Z" fill="#F8FAFC"/>
  <path d="M272 386c39 32 113 32 152 0 24 28 38 82 46 166H226c8-84 22-138 46-166Z" fill="#FFFFFF"/>
  <path d="M258 430c-24 35-43 104-56 207M438 430c24 35 43 104 56 207" stroke="#94A3B8" stroke-width="16" stroke-linecap="round"/>
  <path d="M322 285h52v92c0 18-12 32-26 32s-26-14-26-32v-92Z" fill="#FFE7D4"/>
  <rect x="407" y="336" width="170" height="230" rx="22" fill="#FFFFFF" stroke="#CBD5E1" stroke-width="8"/>
  <rect x="438" y="382" width="82" height="10" rx="5" fill="#059669"/>
  <rect x="438" y="422" width="104" height="10" rx="5" fill="#CBD5E1"/>
  <rect x="438" y="462" width="88" height="10" rx="5" fill="#CBD5E1"/>
  <circle cx="348" cy="220" r="76" fill="#FFE7D4"/>
  <path d="M303 214c27 22 66 22 93 0" stroke="#0F172A" stroke-width="10" stroke-linecap="round"/>
  <circle cx="320" cy="195" r="7" fill="#0F172A"/>
  <circle cx="376" cy="195" r="7" fill="#0F172A"/>
  <path d="M212 666h274" stroke="#A7F3D0" stroke-width="22" stroke-linecap="round"/>
</svg>
